{
  "source": "C:\\Users\\Peter\\Desktop\\stuff\\MIUN\\quantitative_research\\video_compression\\videos\\UVG\\YachtRide_1920x1080_120fps_420_8bit_YUV.y4m",
  "output": "C:\\Users\\Peter\\Desktop\\stuff\\MIUN\\quantitative_research\\video_compression\\compressed_videos\\UVG\\hevc\\4\\YachtRide_1920x1080_120fps_420_8bit_YUV_hevc.mp4",
  "codec": "hevc",
  "ok": "[yuv4mpegpipe @ 00000295ccec6740] Stream #0: not enough frames to estimate rate; consider increasing probesize\nInput #0, yuv4mpegpipe, from 'C:\\Users\\Peter\\Desktop\\stuff\\MIUN\\quantitative_research\\video_compression\\videos\\UVG\\YachtRide_1920x1080_120fps_420_8bit_YUV.y4m':\n  Duration: 00:00:05.00, start: 0.000000, bitrate: 2985989 kb/s\n  Stream #0:0: Video: rawvideo (I420 / 0x30323449), yuv420p(progressive), 1920x1080, 120 fps, 120 tbr, 120 tbn\n[out#0/mp4 @ 00000295ccec9a80] Codec AVOption b:a (set bitrate (in bits/s)) has not been used for any stream. The most likely reason is either wrong type (e.g. a video option with no video streams) or that it is a private option of some decoder which was not actually used for any stream.\nStream mapping:\n  Stream #0:0 -> #0:0 (rawvideo (native) -> hevc (libx265))\nPress [q] to stop, [?] for help\n[libx265 @ 00000295cceccac0] Unknown option: \"aq-mode.\nx265 [info]: HEVC encoder version 4.1+190-8f11c33ac\nx265 [info]: build info [Windows][GCC 15.1.0][64 bit] 10bit\nx265 [info]: using cpu capabilities: MMX2 SSE2Fast LZCNT SSSE3 SSE4.2 AVX FMA3 BMI2 AVX2\nx265 [info]: Main 10 profile, Level-5 (Main tier)\nx265 [info]: Thread pool created using 12 threads\nx265 [info]: Slices                              : 1\nx265 [info]: frame threads / pool features       : 3 / wpp(17 rows)\nx265 [info]: Coding QT: max CU size, min CU size : 64 / 8\nx265 [info]: Residual QT: max TU size, max depth : 32 / 1 inter / 1 intra\nx265 [info]: ME / range / subpel / merge         : star / 57 / 3 / 3\nx265 [info]: Keyframe min / max / scenecut / bias  : 25 / 250 / 40 / 5.00 \nx265 [info]: Lookahead / bframes / badapt        : 25 / 4 / 2\nx265 [info]: b-pyramid / weightp / weightb       : 1 / 1 / 0\nx265 [info]: References / ref-limit  cu / depth  : 4 / on / on\nx265 [info]: AQ: mode / str / qg-size / cu-tree  : 2 / 1.0 / 32 / 1\nx265 [info]: Rate Control / qCompress            : ABR-4000 kbps / 0.60\nx265 [info]: VBV/HRD buffer / max-rate / init    : 4000 / 4000 / 0.750\nx265 [info]: tools: rect limit-modes rd=4 psy-rd=2.00 rdoq=2 psy-rdoq=1.00\nx265 [info]: tools: rskip mode=1 signhide tmvp strong-intra-smoothing lslices=4\nx265 [info]: tools: deblock sao dhdr10-info\nOutput #0, mp4, to 'C:\\Users\\Peter\\Desktop\\stuff\\MIUN\\quantitative_research\\video_compression\\compressed_videos\\UVG\\hevc\\4\\YachtRide_1920x1080_120fps_420_8bit_YUV_hevc.mp4':\n  Metadata:\n    encoder         : Lavf62.3.100\n  Stream #0:0: Video: hevc (hev1 / 0x31766568), yuv420p10le(tv, progressive), 1920x1080, q=2-31, 4000 kb/s, 120 fps, 15360 tbn\n    Metadata:\n      encoder         : Lavc62.11.100 libx265\n    Side data:\n      cpb: bitrate max/min/avg: 4000000/0/4000000 buffer size: 4000000 vbv_delay: N/A\nframe=    0 fps=0.0 q=0.0 size=       0KiB time=N/A bitrate=N/A speed=N/A elapsed=0:00:00.50    \nframe=    0 fps=0.0 q=0.0 size=       0KiB time=N/A bitrate=N/A speed=N/A elapsed=0:00:01.03    \nframe=    0 fps=0.0 q=0.0 size=       0KiB time=N/A bitrate=N/A speed=N/A elapsed=0:00:01.55    \nframe=    0 fps=0.0 q=0.0 size=       0KiB time=N/A bitrate=N/A speed=N/A elapsed=0:00:02.06    \nframe=    0 fps=0.0 q=0.0 size=       0KiB time=N/A bitrate=N/A speed=N/A elapsed=0:00:02.62    \nframe=    0 fps=0.0 q=0.0 size=       0KiB time=N/A bitrate=N/A speed=N/A elapsed=0:00:03.13    \nframe=    0 fps=0.0 q=0.0 size=       0KiB time=N/A bitrate=N/A speed=N/A elapsed=0:00:03.65    \nframe=    0 fps=0.0 q=0.0 size=       0KiB time=N/A bitrate=N/A speed=N/A elapsed=0:00:04.19    \nframe=    1 fps=0.2 q=43.9 size=       0KiB time=-00:00:00.00 bitrate=N/A speed=N/A elapsed=0:00:04.74    \nframe=    1 fps=0.2 q=43.9 size=       0KiB time=-00:00:00.00 bitrate=N/A speed=N/A elapsed=0:00:05.27    \nframe=    4 fps=0.7 q=51.0 size=       0KiB time=00:00:00.01 bitrate=  21.1kbits/s speed=0.00288x elapsed=0:00:05.79    \nframe=    4 fps=0.6 q=51.0 size=       0KiB time=00:00:00.01 bitrate=  21.1kbits/s speed=0.00264x elapsed=0:00:06.32    \nframe=    5 fps=0.7 q=49.8 size=       0KiB time=00:00:00.02 bitrate=  14.1kbits/s speed=0.00365x elapsed=0:00:06.84    \nframe=    7 fps=0.9 q=41.9 size=       0KiB time=00:00:00.04 bitrate=   8.4kbits/s speed=0.00565x elapsed=0:00:07.37    \nframe=    8 fps=1.0 q=44.4 size=       0KiB time=00:00:00.05 bitrate=   7.0kbits/s speed=0.00632x elapsed=0:00:07.90    \nframe=    8 fps=1.0 q=44.4 size=       0KiB time=00:00:00.05 bitrate=   7.0kbits/s speed=0.00594x elapsed=0:00:08.41    \nframe=    8 fps=0.9 q=44.4 size=       0KiB time=00:00:00.05 bitrate=   7.0kbits/s speed=0.0056x elapsed=0:00:08.92    \nframe=    9 fps=1.0 q=44.5 size=       0KiB time=00:00:00.05 bitrate=   6.0kbits/s speed=0.00618x elapsed=0:00:09.44    \nframe=   11 fps=1.1 q=39.1 size=       0KiB time=00:00:00.07 bitrate=   4.7kbits/s speed=0.00752x elapsed=0:00:09.97    \nframe=   12 fps=1.1 q=45.3 size=       0KiB time=00:00:00.08 bitrate=   4.2kbits/s speed=0.00793x elapsed=0:00:10.51    \nframe=   12 fps=1.1 q=45.3 size=       0KiB time=00:00:00.08 bitrate=   4.2kbits/s speed=0.00755x elapsed=0:00:11.03    \nframe=   13 fps=1.1 q=46.9 size=       0KiB time=00:00:00.09 bitrate=   3.8kbits/s speed=0.00793x elapsed=0:00:11.56    \nframe=   14 fps=1.2 q=45.9 size=       0KiB time=00:00:00.10 bitrate=   3.5kbits/s speed=0.00827x elapsed=0:00:12.08    \nframe=   15 fps=1.2 q=39.8 size=       0KiB time=00:00:00.10 bitrate=   3.2kbits/s speed=0.00858x elapsed=0:00:12.62    \nframe=   16 fps=1.2 q=43.5 size=       0KiB time=00:00:00.11 bitrate=   3.0kbits/s speed=0.00886x elapsed=0:00:13.16    \nframe=   16 fps=1.2 q=43.5 size=       0KiB time=00:00:00.11 bitrate=   3.0kbits/s speed=0.00852x elapsed=0:00:13.69    \nframe=   17 fps=1.2 q=45.9 size=       0KiB time=00:00:00.12 bitrate=   2.8kbits/s speed=0.00878x elapsed=0:00:14.24    \nframe=   18 fps=1.2 q=45.8 size=       0KiB time=00:00:00.13 bitrate=   2.6kbits/s speed=0.00903x elapsed=0:00:14.76    \nframe=   19 fps=1.2 q=39.0 size=       0KiB time=00:00:00.14 bitrate=   2.5kbits/s speed=0.00924x elapsed=0:00:15.32    \nframe=   19 fps=1.2 q=39.0 size=       0KiB time=00:00:00.14 bitrate=   2.5kbits/s speed=0.00894x elapsed=0:00:15.85    \nframe=   19 fps=1.2 q=39.0 size=       0KiB time=00:00:00.14 bitrate=   2.5kbits/s speed=0.00866x elapsed=0:00:16.36    \nframe=   20 fps=1.2 q=43.5 size=       0KiB time=00:00:00.15 bitrate=   2.3kbits/s speed=0.00889x elapsed=0:00:16.88    \nframe=   20 fps=1.1 q=43.5 size=       0KiB time=00:00:00.15 bitrate=   2.3kbits/s speed=0.00862x elapsed=0:00:17.39    \nframe=   21 fps=1.2 q=45.8 size=       0KiB time=00:00:00.15 bitrate=   2.2kbits/s speed=0.00884x elapsed=0:00:17.91    \nframe=   21 fps=1.1 q=45.8 size=       0KiB time=00:00:00.15 bitrate=   2.2kbits/s speed=0.00858x elapsed=0:00:18.44    \nframe=   22 fps=1.2 q=45.8 size=       0KiB time=00:00:00.16 bitrate=   2.1kbits/s speed=0.00879x elapsed=0:00:18.95    \nframe=   23 fps=1.2 q=38.7 size=       0KiB time=00:00:00.17 bitrate=   2.0kbits/s speed=0.00899x elapsed=0:00:19.47    \nframe=   24 fps=1.2 q=43.1 size=       0KiB time=00:00:00.18 bitrate=   1.9kbits/s speed=0.00916x elapsed=0:00:20.01    \nframe=   24 fps=1.2 q=43.1 size=       0KiB time=00:00:00.18 bitrate=   1.9kbits/s speed=0.00892x elapsed=0:00:20.54    \nframe=   26 fps=1.2 q=45.0 size=       0KiB time=00:00:00.20 bitrate=   1.8kbits/s speed=0.0095x elapsed=0:00:21.05    \nframe=   26 fps=1.2 q=45.0 size=       0KiB time=00:00:00.20 bitrate=   1.8kbits/s speed=0.00926x elapsed=0:00:21.59    \nframe=   26 fps=1.2 q=45.0 size=       0KiB time=00:00:00.20 bitrate=   1.8kbits/s speed=0.00904x elapsed=0:00:22.12    \nframe=   27 fps=1.2 q=38.6 size=       0KiB time=00:00:00.20 bitrate=   1.7kbits/s speed=0.00919x elapsed=0:00:22.67    \nframe=   28 fps=1.2 q=42.8 size=       0KiB time=00:00:00.21 bitrate=   1.6kbits/s speed=0.00935x elapsed=0:00:23.18    \nframe=   29 fps=1.2 q=45.0 size=       0KiB time=00:00:00.22 bitrate=   1.6kbits/s speed=0.0095x elapsed=0:00:23.69    \nframe=   30 fps=1.2 q=45.1 size=       0KiB time=00:00:00.23 bitrate=   1.5kbits/s speed=0.00963x elapsed=0:00:24.22    \nframe=   31 fps=1.3 q=39.0 size=       0KiB time=00:00:00.24 bitrate=   1.5kbits/s speed=0.00976x elapsed=0:00:24.76    \nframe=   32 fps=1.3 q=42.7 size=       0KiB time=00:00:00.25 bitrate=   1.4kbits/s speed=0.00989x elapsed=0:00:25.26    \nframe=   32 fps=1.2 q=42.7 size=       0KiB time=00:00:00.25 bitrate=   1.4kbits/s speed=0.0097x elapsed=0:00:25.78    \nframe=   33 fps=1.3 q=45.1 size=       0KiB time=00:00:00.25 bitrate=   1.4kbits/s speed=0.00982x elapsed=0:00:26.30    \nframe=   33 fps=1.2 q=45.1 size=       0KiB time=00:00:00.25 bitrate=   1.4kbits/s speed=0.00963x elapsed=0:00:26.81    \nframe=   35 fps=1.3 q=38.8 size=       0KiB time=00:00:00.27 bitrate=   1.3kbits/s speed=0.0101x elapsed=0:00:27.35    \nframe=   36 fps=1.3 q=42.3 size=       0KiB time=00:00:00.28 bitrate=   1.2kbits/s speed=0.0102x elapsed=0:00:27.86    \nframe=   36 fps=1.3 q=42.3 size=       0KiB time=00:00:00.28 bitrate=   1.2kbits/s speed=0.00997x elapsed=0:00:28.41    \nframe=   37 fps=1.3 q=45.0 size=       0KiB time=00:00:00.29 bitrate=   1.2kbits/s speed=0.0101x elapsed=0:00:28.94    \nframe=   38 fps=1.3 q=45.1 size=       0KiB time=00:00:00.30 bitrate=   1.2kbits/s speed=0.0102x elapsed=0:00:29.47    \nframe=   38 fps=1.3 q=45.1 size=       0KiB time=00:00:00.30 bitrate=   1.2kbits/s speed=0.01x elapsed=0:00:30.00    \nframe=   39 fps=1.3 q=38.9 size=       0KiB time=00:00:00.30 bitrate=   1.1kbits/s speed=0.0101x elapsed=0:00:30.54    \nframe=   40 fps=1.3 q=42.7 size=       0KiB time=00:00:00.31 bitrate=   1.1kbits/s speed=0.0102x elapsed=0:00:31.05    \nframe=   41 fps=1.3 q=44.9 size=       0KiB time=00:00:00.32 bitrate=   1.1kbits/s speed=0.0103x elapsed=0:00:31.61    \nframe=   41 fps=1.3 q=44.9 size=       0KiB time=00:00:00.32 bitrate=   1.1kbits/s speed=0.0101x elapsed=0:00:32.16    \nframe=   42 fps=1.3 q=45.6 size=       0KiB time=00:00:00.33 bitrate=   1.1kbits/s speed=0.0102x elapsed=0:00:32.67    \nframe=   43 fps=1.3 q=39.1 size=       0KiB time=00:00:00.34 bitrate=   1.0kbits/s speed=0.0103x elapsed=0:00:33.24    \nframe=   44 fps=1.3 q=42.5 size=       0KiB time=00:00:00.34 bitrate=   1.0kbits/s speed=0.0101x elapsed=0:00:33.79    \nframe=   44 fps=1.3 q=42.5 size=       0KiB time=00:00:00.35 bitrate=   1.0kbits/s speed=0.0102x elapsed=0:00:34.30    \nframe=   44 fps=1.3 q=42.5 size=       0KiB time=00:00:00.35 bitrate=   1.0kbits/s speed=0.01x elapsed=0:00:34.83    \nframe=   44 fps=1.2 q=42.5 size=       0KiB time=00:00:00.35 bitrate=   1.0kbits/s speed=0.00989x elapsed=0:00:35.38    \nframe=   45 fps=1.3 q=45.8 size=       0KiB time=00:00:00.35 bitrate=   1.0kbits/s speed=0.00998x elapsed=0:00:35.90    \nframe=   46 fps=1.3 q=45.7 size=       0KiB time=00:00:00.36 bitrate=   1.0kbits/s speed=0.0101x elapsed=0:00:36.44    \nframe=   47 fps=1.3 q=39.3 size=       0KiB time=00:00:00.37 bitrate=   0.9kbits/s speed=0.0101x elapsed=0:00:36.97    \nframe=   48 fps=1.3 q=42.9 size=       0KiB time=00:00:00.38 bitrate=   0.9kbits/s speed=0.0102x elapsed=0:00:37.48    \nframe=   48 fps=1.3 q=42.9 size=       0KiB time=00:00:00.38 bitrate=   0.9kbits/s speed=0.0101x elapsed=0:00:38.00    \nframe=   49 fps=1.3 q=45.9 size=       0KiB time=00:00:00.39 bitrate=   0.9kbits/s speed=0.0102x elapsed=0:00:38.53    \nframe=   50 fps=1.3 q=45.7 size=       0KiB time=00:00:00.40 bitrate=   0.9kbits/s speed=0.0102x elapsed=0:00:39.05    \nframe=   50 fps=1.3 q=45.7 size=       0KiB time=00:00:00.40 bitrate=   0.9kbits/s speed=0.0101x elapsed=0:00:39.56    \nframe=   52 fps=1.3 q=42.6 size=       0KiB time=00:00:00.41 bitrate=   0.8kbits/s speed=0.0104x elapsed=0:00:40.10    \nframe=   52 fps=1.3 q=42.6 size=       0KiB time=00:00:00.41 bitrate=   0.8kbits/s speed=0.0103x elapsed=0:00:40.61    \nframe=   53 fps=1.3 q=45.7 size=       0KiB time=00:00:00.42 bitrate=   0.8kbits/s speed=0.0103x elapsed=0:00:41.12    \nframe=   54 fps=1.3 q=45.6 size=       0KiB time=00:00:00.43 bitrate=   0.8kbits/s speed=0.0104x elapsed=0:00:41.65    \nframe=   55 fps=1.3 q=39.5 size=       0KiB time=00:00:00.44 bitrate=   0.8kbits/s speed=0.0105x elapsed=0:00:42.17    \nframe=   56 fps=1.3 q=42.4 size=       0KiB time=00:00:00.45 bitrate=   0.8kbits/s speed=0.0105x elapsed=0:00:42.69    \nframe=   56 fps=1.3 q=42.4 size=       0KiB time=00:00:00.45 bitrate=   0.8kbits/s speed=0.0104x elapsed=0:00:43.21    \nframe=   57 fps=1.3 q=45.8 size=       0KiB time=00:00:00.45 bitrate=   0.8kbits/s speed=0.0105x elapsed=0:00:43.75    \nframe=   58 fps=1.3 q=45.7 size=       0KiB time=00:00:00.46 bitrate=   0.8kbits/s speed=0.0105x elapsed=0:00:44.27    \nframe=   58 fps=1.3 q=45.7 size=       0KiB time=00:00:00.46 bitrate=   0.8kbits/s speed=0.0104x elapsed=0:00:44.81    \nframe=   60 fps=1.3 q=43.1 size=       0KiB time=00:00:00.48 bitrate=   0.7kbits/s speed=0.0107x elapsed=0:00:45.33    \nframe=   60 fps=1.3 q=43.1 size=       0KiB time=00:00:00.48 bitrate=   0.7kbits/s speed=0.0105x elapsed=0:00:45.86    \nframe=   60 fps=1.3 q=43.1 size=       0KiB time=00:00:00.48 bitrate=   0.7kbits/s speed=0.0104x elapsed=0:00:46.40    \nframe=   60 fps=1.3 q=43.1 size=       0KiB time=00:00:00.48 bitrate=   0.7kbits/s speed=0.0103x elapsed=0:00:46.96    \nframe=   61 fps=1.3 q=45.6 size=       0KiB time=00:00:00.49 bitrate=   0.7kbits/s speed=0.0104x elapsed=0:00:47.47    \nframe=   61 fps=1.3 q=45.6 size=       0KiB time=00:00:00.49 bitrate=   0.7kbits/s speed=0.0102x elapsed=0:00:48.01    \nframe=   62 fps=1.3 q=45.6 size=       0KiB time=00:00:00.50 bitrate=   0.7kbits/s speed=0.0103x elapsed=0:00:48.55    \nframe=   63 fps=1.3 q=39.5 size=       0KiB time=00:00:00.50 bitrate=   0.7kbits/s speed=0.0104x elapsed=0:00:49.06    \nframe=   64 fps=1.3 q=43.3 size=       0KiB time=00:00:00.51 bitrate=   0.7kbits/s speed=0.0104x elapsed=0:00:49.58    \nframe=   65 fps=1.3 q=45.7 size=       0KiB time=00:00:00.52 bitrate=   0.7kbits/s speed=0.0105x elapsed=0:00:50.12    \nframe=   65 fps=1.3 q=45.7 size=       0KiB time=00:00:00.52 bitrate=   0.7kbits/s speed=0.0104x elapsed=0:00:50.65    \nframe=   66 fps=1.3 q=45.6 size=       0KiB time=00:00:00.53 bitrate=   0.7kbits/s speed=0.0104x elapsed=0:00:51.18    \nframe=   67 fps=1.3 q=39.6 size=       0KiB time=00:00:00.54 bitrate=   0.6kbits/s speed=0.0105x elapsed=0:00:51.69    \nframe=   68 fps=1.3 q=43.3 size=     256KiB time=00:00:00.55 bitrate=3813.6kbits/s speed=0.0105x elapsed=0:00:52.21    \nframe=   69 fps=1.3 q=45.7 size=     256KiB time=00:00:00.55 bitrate=3813.6kbits/s speed=0.0104x elapsed=0:00:52.72    \nframe=   69 fps=1.3 q=45.7 size=     256KiB time=00:00:00.55 bitrate=3756.7kbits/s speed=0.0105x elapsed=0:00:53.28    \nframe=   70 fps=1.3 q=45.7 size=     256KiB time=00:00:00.56 bitrate=3701.5kbits/s speed=0.0105x elapsed=0:00:53.81    \nframe=   70 fps=1.3 q=45.7 size=     256KiB time=00:00:00.56 bitrate=3701.5kbits/s speed=0.0104x elapsed=0:00:54.33    \nframe=   72 fps=1.3 q=43.3 size=     256KiB time=00:00:00.58 bitrate=3595.7kbits/s speed=0.0106x elapsed=0:00:54.86    \nframe=   72 fps=1.3 q=43.3 size=     256KiB time=00:00:00.58 bitrate=3595.7kbits/s speed=0.0105x elapsed=0:00:55.36    \nframe=   72 fps=1.3 q=43.3 size=     256KiB time=00:00:00.58 bitrate=3595.7kbits/s speed=0.0104x elapsed=0:00:55.91    \nframe=   73 fps=1.3 q=45.8 size=     256KiB time=00:00:00.59 bitrate=3545.1kbits/s speed=0.0105x elapsed=0:00:56.42    \nframe=   73 fps=1.3 q=45.8 size=     256KiB time=00:00:00.59 bitrate=3545.1kbits/s speed=0.0104x elapsed=0:00:56.96    \nframe=   74 fps=1.3 q=45.7 size=     256KiB time=00:00:00.60 bitrate=3495.8kbits/s speed=0.0104x elapsed=0:00:57.49    \nframe=   75 fps=1.3 q=39.6 size=     256KiB time=00:00:00.60 bitrate=3448.0kbits/s speed=0.0105x elapsed=0:00:58.01    \nframe=   76 fps=1.3 q=43.1 size=     256KiB time=00:00:00.61 bitrate=3401.4kbits/s speed=0.0105x elapsed=0:00:58.54    \nframe=   76 fps=1.3 q=43.1 size=     256KiB time=00:00:00.61 bitrate=3401.4kbits/s speed=0.0104x elapsed=0:00:59.06    \nframe=   76 fps=1.3 q=43.1 size=     256KiB time=00:00:00.61 bitrate=3401.4kbits/s speed=0.0103x elapsed=0:00:59.58    \nframe=   77 fps=1.3 q=45.7 size=     256KiB time=00:00:00.62 bitrate=3356.0kbits/s speed=0.0104x elapsed=0:01:00.10    \nframe=   79 fps=1.3 q=39.5 size=     256KiB time=00:00:00.64 bitrate=3268.8kbits/s speed=0.0106x elapsed=0:01:00.62    \nframe=   80 fps=1.3 q=43.3 size=     256KiB time=00:00:00.65 bitrate=3226.9kbits/s speed=0.0106x elapsed=0:01:01.15    \nframe=   80 fps=1.3 q=43.3 size=     256KiB time=00:00:00.65 bitrate=3226.9kbits/s speed=0.0105x elapsed=0:01:01.69    \nframe=   81 fps=1.3 q=45.7 size=     256KiB time=00:00:00.65 bitrate=3186.1kbits/s speed=0.0106x elapsed=0:01:02.22    \nframe=   82 fps=1.3 q=45.7 size=     256KiB time=00:00:00.66 bitrate=3146.3kbits/s speed=0.0106x elapsed=0:01:02.74    \nframe=   83 fps=1.3 q=39.5 size=     256KiB time=00:00:00.67 bitrate=3107.4kbits/s speed=0.0107x elapsed=0:01:03.26    \nframe=   83 fps=1.3 q=39.5 size=     256KiB time=00:00:00.67 bitrate=3107.4kbits/s speed=0.0106x elapsed=0:01:03.79    \nframe=   84 fps=1.3 q=43.3 size=     256KiB time=00:00:00.68 bitrate=3069.5kbits/s speed=0.0106x elapsed=0:01:04.30    \nframe=   85 fps=1.3 q=45.7 size=     256KiB time=00:00:00.69 bitrate=3032.5kbits/s speed=0.0107x elapsed=0:01:04.84    \nframe=   86 fps=1.3 q=45.9 size=     256KiB time=00:00:00.70 bitrate=2996.4kbits/s speed=0.0107x elapsed=0:01:05.39    \nframe=   88 fps=1.3 q=43.1 size=     256KiB time=00:00:00.71 bitrate=2926.7kbits/s speed=0.0109x elapsed=0:01:05.91    \nframe=   88 fps=1.3 q=43.1 size=     256KiB time=00:00:00.71 bitrate=2926.7kbits/s speed=0.0108x elapsed=0:01:06.46    \nframe=   89 fps=1.3 q=45.7 size=     256KiB time=00:00:00.72 bitrate=2893.1kbits/s speed=0.0108x elapsed=0:01:06.97    \nframe=   89 fps=1.3 q=45.7 size=     256KiB time=00:00:00.72 bitrate=2893.1kbits/s speed=0.0107x elapsed=0:01:07.49    \nframe=   90 fps=1.3 q=45.7 size=     256KiB time=00:00:00.73 bitrate=2860.2kbits/s speed=0.0108x elapsed=0:01:08.00    \nframe=   91 fps=1.3 q=39.6 size=     256KiB time=00:00:00.74 bitrate=2828.1kbits/s speed=0.0108x elapsed=0:01:08.53    \nframe=   91 fps=1.3 q=39.6 size=     256KiB time=00:00:00.74 bitrate=2828.1kbits/s speed=0.0107x elapsed=0:01:09.05    \nframe=   92 fps=1.3 q=42.9 size=     256KiB time=00:00:00.75 bitrate=2796.7kbits/s speed=0.0108x elapsed=0:01:09.57    \nframe=   92 fps=1.3 q=42.9 size=     256KiB time=00:00:00.75 bitrate=2796.7kbits/s speed=0.0107x elapsed=0:01:10.08    \nframe=   93 fps=1.3 q=45.4 size=     256KiB time=00:00:00.75 bitrate=2765.9kbits/s speed=0.0107x elapsed=0:01:10.62    \nframe=   93 fps=1.3 q=45.4 size=     256KiB time=00:00:00.75 bitrate=2765.9kbits/s speed=0.0107x elapsed=0:01:11.16    \nframe=   94 fps=1.3 q=45.9 size=     256KiB time=00:00:00.76 bitrate=2735.9kbits/s speed=0.0107x elapsed=0:01:11.68    \nframe=   94 fps=1.3 q=45.9 size=     256KiB time=00:00:00.76 bitrate=2735.9kbits/s speed=0.0106x elapsed=0:01:12.20    \nframe=   95 fps=1.3 q=39.5 size=     256KiB time=00:00:00.77 bitrate=2706.5kbits/s speed=0.0107x elapsed=0:01:12.72    \nframe=   96 fps=1.3 q=42.9 size=     256KiB time=00:00:00.78 bitrate=2677.7kbits/s speed=0.0107x elapsed=0:01:13.25    \nframe=   96 fps=1.3 q=42.9 size=     256KiB time=00:00:00.78 bitrate=2677.7kbits/s speed=0.0106x elapsed=0:01:13.77    \nframe=   97 fps=1.3 q=45.8 size=     256KiB time=00:00:00.79 bitrate=2649.5kbits/s speed=0.0107x elapsed=0:01:14.28    \nframe=   98 fps=1.3 q=45.7 size=     256KiB time=00:00:00.80 bitrate=2621.9kbits/s speed=0.0107x elapsed=0:01:14.82    \nframe=   99 fps=1.3 q=39.2 size=     256KiB time=00:00:00.80 bitrate=2594.9kbits/s speed=0.0107x elapsed=0:01:15.36    \nframe=  100 fps=1.3 q=42.6 size=     256KiB time=00:00:00.81 bitrate=2568.4kbits/s speed=0.0108x elapsed=0:01:15.90    \nframe=  101 fps=1.3 q=45.1 size=     256KiB time=00:00:00.82 bitrate=2542.4kbits/s speed=0.0108x elapsed=0:01:16.42    \nframe=  101 fps=1.3 q=45.1 size=     256KiB time=00:00:00.82 bitrate=2542.4kbits/s speed=0.0107x elapsed=0:01:16.94    \nframe=  102 fps=1.3 q=45.6 size=     256KiB time=00:00:00.83 bitrate=2517.0kbits/s speed=0.0108x elapsed=0:01:17.47    \nframe=  103 fps=1.3 q=39.3 size=     256KiB time=00:00:00.84 bitrate=2492.1kbits/s speed=0.0108x elapsed=0:01:18.02    \nframe=  104 fps=1.3 q=42.9 size=     256KiB time=00:00:00.85 bitrate=2467.7kbits/s speed=0.0108x elapsed=0:01:18.53    \nframe=  105 fps=1.3 q=45.1 size=     256KiB time=00:00:00.85 bitrate=2443.7kbits/s speed=0.0109x elapsed=0:01:19.08    \nframe=  105 fps=1.3 q=45.1 size=     256KiB time=00:00:00.85 bitrate=2443.7kbits/s speed=0.0108x elapsed=0:01:19.60    \nframe=  105 fps=1.3 q=45.1 size=     256KiB time=00:00:00.85 bitrate=2443.7kbits/s speed=0.0107x elapsed=0:01:20.11    \nframe=  106 fps=1.3 q=45.0 size=     256KiB time=00:00:00.86 bitrate=2420.2kbits/s speed=0.0107x elapsed=0:01:20.64    \nframe=  108 fps=1.3 q=43.0 size=     256KiB time=00:00:00.87 bitrate=2397.1kbits/s speed=0.0108x elapsed=0:01:21.17    \nframe=  109 fps=1.3 q=45.1 size=     256KiB time=00:00:00.89 bitrate=2352.3kbits/s speed=0.0109x elapsed=0:01:21.72    \nframe=  109 fps=1.3 q=45.1 size=     256KiB time=00:00:00.89 bitrate=2352.3kbits/s speed=0.0108x elapsed=0:01:22.27    \nframe=  110 fps=1.3 q=45.1 size=     256KiB time=00:00:00.90 bitrate=2330.6kbits/s speed=0.0109x elapsed=0:01:22.81    \nframe=  111 fps=1.3 q=39.2 size=     256KiB time=00:00:00.90 bitrate=2309.2kbits/s speed=0.0109x elapsed=0:01:23.32    \nframe=  111 fps=1.3 q=39.2 size=     256KiB time=00:00:00.90 bitrate=2309.2kbits/s speed=0.0108x elapsed=0:01:23.83    \nframe=  111 fps=1.3 q=39.2 size=     256KiB time=00:00:00.90 bitrate=2309.2kbits/s speed=0.0108x elapsed=0:01:24.35    \nframe=  111 fps=1.3 q=39.2 size=     256KiB time=00:00:00.90 bitrate=2309.2kbits/s speed=0.0107x elapsed=0:01:24.86    \nframe=  112 fps=1.3 q=42.8 size=     256KiB time=00:00:00.91 bitrate=2288.2kbits/s speed=0.0107x elapsed=0:01:25.38    \nframe=  112 fps=1.3 q=42.8 size=     256KiB time=00:00:00.91 bitrate=2288.2kbits/s speed=0.0107x elapsed=0:01:25.89    \nframe=  113 fps=1.3 q=45.1 size=     256KiB time=00:00:00.92 bitrate=2267.6kbits/s speed=0.0107x elapsed=0:01:26.41    \nframe=  113 fps=1.3 q=45.1 size=     256KiB time=00:00:00.92 bitrate=2267.6kbits/s speed=0.0106x elapsed=0:01:26.96    \nframe=  114 fps=1.3 q=45.1 size=     256KiB time=00:00:00.93 bitrate=2247.3kbits/s speed=0.0107x elapsed=0:01:27.50    \nframe=  116 fps=1.3 q=42.5 size=     256KiB time=00:00:00.95 bitrate=2207.9kbits/s speed=0.0108x elapsed=0:01:28.02    \nframe=  116 fps=1.3 q=42.5 size=     256KiB time=00:00:00.95 bitrate=2207.9kbits/s speed=0.0107x elapsed=0:01:28.55    \nframe=  116 fps=1.3 q=42.5 size=     256KiB time=00:00:00.95 bitrate=2207.9kbits/s speed=0.0107x elapsed=0:01:29.08    \nframe=  117 fps=1.3 q=45.1 size=     256KiB time=00:00:00.95 bitrate=2188.7kbits/s speed=0.0107x elapsed=0:01:29.60    \nframe=  117 fps=1.3 q=45.1 size=     256KiB time=00:00:00.95 bitrate=2188.7kbits/s speed=0.0106x elapsed=0:01:30.13    \nframe=  117 fps=1.3 q=45.1 size=     256KiB time=00:00:00.95 bitrate=2188.7kbits/s speed=0.0106x elapsed=0:01:30.64    \nframe=  119 fps=1.3 q=39.0 size=     256KiB time=00:00:00.97 bitrate=2151.3kbits/s speed=0.0107x elapsed=0:01:31.17    \nframe=  119 fps=1.3 q=39.0 size=     256KiB time=00:00:00.97 bitrate=2151.3kbits/s speed=0.0106x elapsed=0:01:31.72    \nframe=  120 fps=1.3 q=42.6 size=     256KiB time=00:00:00.98 bitrate=2133.1kbits/s speed=0.0107x elapsed=0:01:32.25    \nframe=  121 fps=1.3 q=45.1 size=     256KiB time=00:00:00.99 bitrate=2115.1kbits/s speed=0.0107x elapsed=0:01:32.78    \nframe=  122 fps=1.3 q=45.1 size=     256KiB time=00:00:01.00 bitrate=2097.5kbits/s speed=0.0107x elapsed=0:01:33.29    \nframe=  122 fps=1.3 q=45.1 size=     256KiB time=00:00:01.00 bitrate=2097.5kbits/s speed=0.0107x elapsed=0:01:33.81    \nframe=  122 fps=1.3 q=45.1 size=     256KiB time=00:00:01.00 bitrate=2097.5kbits/s speed=0.0106x elapsed=0:01:34.33    \nframe=  122 fps=1.3 q=45.1 size=     256KiB time=00:00:01.00 bitrate=2097.5kbits/s speed=0.0105x elapsed=0:01:34.85    \nframe=  123 fps=1.3 q=39.2 size=     256KiB time=00:00:01.00 bitrate=2080.2kbits/s speed=0.0106x elapsed=0:01:35.38    \nframe=  124 fps=1.3 q=42.7 size=     256KiB time=00:00:01.01 bitrate=2063.1kbits/s speed=0.0106x elapsed=0:01:35.92    \nframe=  125 fps=1.3 q=44.8 size=     256KiB time=00:00:01.02 bitrate=2046.3kbits/s speed=0.0106x elapsed=0:01:36.46    \nframe=  125 fps=1.3 q=44.8 size=     256KiB time=00:00:01.02 bitrate=2046.3kbits/s speed=0.0106x elapsed=0:01:36.98    \nframe=  125 fps=1.3 q=44.8 size=     256KiB time=00:00:01.02 bitrate=2046.3kbits/s speed=0.0105x elapsed=0:01:37.49    \nframe=  126 fps=1.3 q=44.9 size=     256KiB time=00:00:01.03 bitrate=2029.8kbits/s speed=0.0105x elapsed=0:01:38.00    \nframe=  127 fps=1.3 q=39.3 size=     256KiB time=00:00:01.04 bitrate=2013.6kbits/s speed=0.0106x elapsed=0:01:38.53    \nframe=  128 fps=1.3 q=42.7 size=     256KiB time=00:00:01.05 bitrate=1997.6kbits/s speed=0.0106x elapsed=0:01:39.05    \nframe=  128 fps=1.3 q=42.7 size=     256KiB time=00:00:01.05 bitrate=1997.6kbits/s speed=0.0105x elapsed=0:01:39.58    \nframe=  129 fps=1.3 q=44.9 size=     256KiB time=00:00:01.05 bitrate=1981.9kbits/s speed=0.0106x elapsed=0:01:40.12    \nframe=  130 fps=1.3 q=45.0 size=     256KiB time=00:00:01.06 bitrate=1966.4kbits/s speed=0.0106x elapsed=0:01:40.64    \nframe=  131 fps=1.3 q=38.9 size=     256KiB time=00:00:01.07 bitrate=1951.2kbits/s speed=0.0106x elapsed=0:01:41.16    \nframe=  132 fps=1.3 q=42.9 size=     512KiB time=00:00:01.08 bitrate=3872.0kbits/s speed=0.0107x elapsed=0:01:41.67    \nframe=  132 fps=1.3 q=42.9 size=     512KiB time=00:00:01.08 bitrate=3872.0kbits/s speed=0.0106x elapsed=0:01:42.19    \nframe=  133 fps=1.3 q=45.1 size=     512KiB time=00:00:01.08 bitrate=3872.0kbits/s speed=0.0105x elapsed=0:01:42.71    \nframe=  133 fps=1.3 q=45.1 size=     512KiB time=00:00:01.09 bitrate=3842.4kbits/s speed=0.0106x elapsed=0:01:43.25    \nframe=  133 fps=1.3 q=45.1 size=     512KiB time=00:00:01.09 bitrate=3842.4kbits/s speed=0.0105x elapsed=0:01:43.78    \nframe=  134 fps=1.3 q=45.0 size=     512KiB time=00:00:01.10 bitrate=3813.3kbits/s speed=0.0105x elapsed=0:01:44.31    \nframe=  135 fps=1.3 q=39.0 size=     512KiB time=00:00:01.10 bitrate=3784.7kbits/s speed=0.0106x elapsed=0:01:44.86    \nframe=  136 fps=1.3 q=42.6 size=     512KiB time=00:00:01.11 bitrate=3756.4kbits/s speed=0.0106x elapsed=0:01:45.39    \nframe=  136 fps=1.3 q=42.6 size=     512KiB time=00:00:01.11 bitrate=3756.4kbits/s speed=0.0105x elapsed=0:01:45.94    \nframe=  137 fps=1.3 q=44.9 size=     512KiB time=00:00:01.12 bitrate=3728.6kbits/s speed=0.0106x elapsed=0:01:46.46    \nframe=  137 fps=1.3 q=44.9 size=     512KiB time=00:00:01.12 bitrate=3728.6kbits/s speed=0.0105x elapsed=0:01:47.01    \nframe=  137 fps=1.3 q=44.9 size=     512KiB time=00:00:01.12 bitrate=3728.6kbits/s speed=0.0105x elapsed=0:01:47.55    \nframe=  138 fps=1.3 q=44.9 size=     512KiB time=00:00:01.13 bitrate=3701.2kbits/s speed=0.0105x elapsed=0:01:48.13    \nframe=  138 fps=1.3 q=44.9 size=     512KiB time=00:00:01.13 bitrate=3701.2kbits/s speed=0.0104x elapsed=0:01:48.70    \nframe=  138 fps=1.3 q=44.9 size=     512KiB time=00:00:01.13 bitrate=3701.2kbits/s speed=0.0104x elapsed=0:01:49.25    \nframe=  139 fps=1.3 q=39.2 size=     512KiB time=00:00:01.14 bitrate=3674.2kbits/s speed=0.0104x elapsed=0:01:49.85    \nframe=  140 fps=1.3 q=42.7 size=     512KiB time=00:00:01.15 bitrate=3647.5kbits/s speed=0.0104x elapsed=0:01:50.42    \nframe=  140 fps=1.3 q=42.7 size=     512KiB time=00:00:01.15 bitrate=3647.5kbits/s speed=0.0104x elapsed=0:01:51.06    \nframe=  140 fps=1.3 q=42.7 size=     512KiB time=00:00:01.15 bitrate=3647.5kbits/s speed=0.0103x elapsed=0:01:51.65    \nframe=  140 fps=1.2 q=42.7 size=     512KiB time=00:00:01.15 bitrate=3647.5kbits/s speed=0.0102x elapsed=0:01:52.22    \nframe=  140 fps=1.2 q=42.7 size=     512KiB time=00:00:01.15 bitrate=3647.5kbits/s speed=0.0102x elapsed=0:01:52.77    \nframe=  140 fps=1.2 q=42.7 size=     512KiB time=00:00:01.15 bitrate=3647.5kbits/s speed=0.0101x elapsed=0:01:53.34    \nframe=  140 fps=1.2 q=42.7 size=     512KiB time=00:00:01.15 bitrate=3647.5kbits/s speed=0.0101x elapsed=0:01:53.88    \nframe=  140 fps=1.2 q=42.7 size=     512KiB time=00:00:01.15 bitrate=3647.5kbits/s speed=0.01x elapsed=0:01:54.46    \nframe=  141 fps=1.2 q=44.9 size=     512KiB time=00:00:01.15 bitrate=3621.3kbits/s speed=0.0101x elapsed=0:01:55.02    \nframe=  141 fps=1.2 q=44.9 size=     512KiB time=00:00:01.15 bitrate=3621.3kbits/s speed=0.01x elapsed=0:01:55.64    \nframe=  141 fps=1.2 q=44.9 size=     512KiB time=00:00:01.15 bitrate=3621.3kbits/s speed=0.00997x elapsed=0:01:56.22    \nframe=  141 fps=1.2 q=44.9 size=     512KiB time=00:00:01.15 bitrate=3621.3kbits/s speed=0.00992x elapsed=0:01:56.79    \nframe=  141 fps=1.2 q=44.9 size=     512KiB time=00:00:01.15 bitrate=3621.3kbits/s speed=0.00987x elapsed=0:01:57.36    \nframe=  142 fps=1.2 q=44.9 size=     512KiB time=00:00:01.16 bitrate=3595.4kbits/s speed=0.00989x elapsed=0:01:57.94    \nframe=  142 fps=1.2 q=44.9 size=     512KiB time=00:00:01.16 bitrate=3595.4kbits/s speed=0.00984x elapsed=0:01:58.51    \nframe=  142 fps=1.2 q=44.9 size=     512KiB time=00:00:01.16 bitrate=3595.4kbits/s speed=0.0098x elapsed=0:01:59.09    \nframe=  142 fps=1.2 q=44.9 size=     512KiB time=00:00:01.16 bitrate=3595.4kbits/s speed=0.00975x elapsed=0:01:59.64    \nframe=  142 fps=1.2 q=44.9 size=     512KiB time=00:00:01.16 bitrate=3595.4kbits/s speed=0.00971x elapsed=0:02:00.19    \nframe=  142 fps=1.2 q=44.9 size=     512KiB time=00:00:01.16 bitrate=3595.4kbits/s speed=0.00966x elapsed=0:02:00.75    \nframe=  142 fps=1.2 q=44.9 size=     512KiB time=00:00:01.16 bitrate=3595.4kbits/s speed=0.00962x elapsed=0:02:01.30    \nframe=  142 fps=1.2 q=44.9 size=     512KiB time=00:00:01.16 bitrate=3595.4kbits/s speed=0.00957x elapsed=0:02:01.91    \nframe=  143 fps=1.2 q=39.3 size=     512KiB time=00:00:01.17 bitrate=3569.9kbits/s speed=0.00959x elapsed=0:02:02.47    \nframe=  143 fps=1.2 q=39.3 size=     512KiB time=00:00:01.17 bitrate=3569.9kbits/s speed=0.00955x elapsed=0:02:03.02    \nframe=  144 fps=1.2 q=42.8 size=     512KiB time=00:00:01.18 bitrate=3544.8kbits/s speed=0.00957x elapsed=0:02:03.59    \nframe=  144 fps=1.2 q=42.8 size=     512KiB time=00:00:01.18 bitrate=3544.8kbits/s speed=0.00953x elapsed=0:02:04.14    \nframe=  145 fps=1.2 q=45.0 size=     512KiB time=00:00:01.19 bitrate=3520.0kbits/s speed=0.00956x elapsed=0:02:04.66    \nframe=  145 fps=1.2 q=45.0 size=     512KiB time=00:00:01.19 bitrate=3520.0kbits/s speed=0.00952x elapsed=0:02:05.19    \nframe=  146 fps=1.2 q=44.9 size=     512KiB time=00:00:01.20 bitrate=3495.5kbits/s speed=0.00955x elapsed=0:02:05.71    \nframe=  147 fps=1.2 q=39.2 size=     512KiB time=00:00:01.20 bitrate=3471.4kbits/s speed=0.00957x elapsed=0:02:06.23    \nframe=  148 fps=1.2 q=42.7 size=     512KiB time=00:00:01.21 bitrate=3447.7kbits/s speed=0.0096x elapsed=0:02:06.78    \nframe=  148 fps=1.2 q=42.7 size=     512KiB time=00:00:01.21 bitrate=3447.7kbits/s speed=0.00956x elapsed=0:02:07.30    \nframe=  148 fps=1.2 q=42.7 size=     512KiB time=00:00:01.21 bitrate=3447.7kbits/s speed=0.00952x elapsed=0:02:07.84    \nframe=  149 fps=1.2 q=44.8 size=     512KiB time=00:00:01.22 bitrate=3424.2kbits/s speed=0.00954x elapsed=0:02:08.36    \nframe=  149 fps=1.2 q=44.8 size=     512KiB time=00:00:01.22 bitrate=3424.2kbits/s speed=0.0095x elapsed=0:02:08.88    \nframe=  149 fps=1.2 q=44.8 size=     512KiB time=00:00:01.22 bitrate=3424.2kbits/s speed=0.00946x elapsed=0:02:09.43    \nframe=  151 fps=1.2 q=38.8 size=     512KiB time=00:00:01.24 bitrate=3378.2kbits/s speed=0.00955x elapsed=0:02:09.95    \nframe=  152 fps=1.2 q=42.9 size=     512KiB time=00:00:01.25 bitrate=3355.7kbits/s speed=0.00958x elapsed=0:02:10.46    \nframe=  152 fps=1.2 q=42.9 size=     512KiB time=00:00:01.25 bitrate=3355.7kbits/s speed=0.00954x elapsed=0:02:11.01    \nframe=  153 fps=1.2 q=45.0 size=     512KiB time=00:00:01.25 bitrate=3333.5kbits/s speed=0.00957x elapsed=0:02:11.54    \nframe=  153 fps=1.2 q=45.0 size=     512KiB time=00:00:01.25 bitrate=3333.5kbits/s speed=0.00953x elapsed=0:02:12.06    \nframe=  154 fps=1.2 q=45.1 size=     512KiB time=00:00:01.26 bitrate=3311.6kbits/s speed=0.00955x elapsed=0:02:12.59    \nframe=  155 fps=1.2 q=39.0 size=     512KiB time=00:00:01.27 bitrate=3289.9kbits/s speed=0.00958x elapsed=0:02:13.10    \nframe=  156 fps=1.2 q=43.0 size=     512KiB time=00:00:01.28 bitrate=3268.6kbits/s speed=0.0096x elapsed=0:02:13.64    \nframe=  156 fps=1.2 q=43.0 size=     512KiB time=00:00:01.28 bitrate=3268.6kbits/s speed=0.00956x elapsed=0:02:14.18    \nframe=  157 fps=1.2 q=45.1 size=     512KiB time=00:00:01.29 bitrate=3247.5kbits/s speed=0.00959x elapsed=0:02:14.69    \nframe=  158 fps=1.2 q=45.0 size=     512KiB time=00:00:01.30 bitrate=3226.7kbits/s speed=0.00961x elapsed=0:02:15.21    \nframe=  158 fps=1.2 q=45.0 size=     512KiB time=00:00:01.30 bitrate=3226.7kbits/s speed=0.00957x elapsed=0:02:15.77    \nframe=  158 fps=1.2 q=45.0 size=     512KiB time=00:00:01.30 bitrate=3226.7kbits/s speed=0.00954x elapsed=0:02:16.28    \nframe=  159 fps=1.2 q=39.1 size=     512KiB time=00:00:01.30 bitrate=3206.1kbits/s speed=0.00956x elapsed=0:02:16.81    \nframe=  160 fps=1.2 q=42.5 size=     512KiB time=00:00:01.31 bitrate=3185.8kbits/s speed=0.00959x elapsed=0:02:17.33    \nframe=  160 fps=1.2 q=42.5 size=     512KiB time=00:00:01.31 bitrate=3185.8kbits/s speed=0.00955x elapsed=0:02:17.86    \nframe=  161 fps=1.2 q=44.9 size=     512KiB time=00:00:01.32 bitrate=3165.8kbits/s speed=0.00957x elapsed=0:02:18.40    \nframe=  161 fps=1.2 q=44.9 size=     512KiB time=00:00:01.32 bitrate=3165.8kbits/s speed=0.00954x elapsed=0:02:18.94    \nframe=  162 fps=1.2 q=45.1 size=     512KiB time=00:00:01.33 bitrate=3146.0kbits/s speed=0.00956x elapsed=0:02:19.47    \nframe=  164 fps=1.2 q=42.9 size=     512KiB time=00:00:01.35 bitrate=3107.2kbits/s speed=0.00964x elapsed=0:02:20.01    \nframe=  164 fps=1.2 q=42.9 size=     512KiB time=00:00:01.35 bitrate=3107.2kbits/s speed=0.00961x elapsed=0:02:20.52    \nframe=  165 fps=1.2 q=45.0 size=     512KiB time=00:00:01.35 bitrate=3088.1kbits/s speed=0.00963x elapsed=0:02:21.03    \nframe=  165 fps=1.2 q=45.0 size=     512KiB time=00:00:01.35 bitrate=3088.1kbits/s speed=0.00959x elapsed=0:02:21.62    \nframe=  166 fps=1.2 q=45.0 size=     512KiB time=00:00:01.36 bitrate=3069.3kbits/s speed=0.00961x elapsed=0:02:22.16    \nframe=  167 fps=1.2 q=38.9 size=     512KiB time=00:00:01.37 bitrate=3050.7kbits/s speed=0.00964x elapsed=0:02:22.67    \nframe=  168 fps=1.2 q=42.7 size=     512KiB time=00:00:01.38 bitrate=3032.3kbits/s speed=0.00966x elapsed=0:02:23.19    \nframe=  168 fps=1.2 q=42.7 size=     512KiB time=00:00:01.38 bitrate=3032.3kbits/s speed=0.00963x elapsed=0:02:23.71    \nframe=  169 fps=1.2 q=45.1 size=     512KiB time=00:00:01.39 bitrate=3014.1kbits/s speed=0.00965x elapsed=0:02:24.26    \nframe=  170 fps=1.2 q=45.0 size=     512KiB time=00:00:01.40 bitrate=2996.2kbits/s speed=0.00967x elapsed=0:02:24.79    \nframe=  170 fps=1.2 q=45.0 size=     512KiB time=00:00:01.40 bitrate=2996.2kbits/s speed=0.00963x elapsed=0:02:25.34    \nframe=  171 fps=1.2 q=39.5 size=     512KiB time=00:00:01.40 bitrate=2978.5kbits/s speed=0.00966x elapsed=0:02:25.85    \nframe=  171 fps=1.2 q=39.5 size=     512KiB time=00:00:01.40 bitrate=2978.5kbits/s speed=0.00962x elapsed=0:02:26.36    \nframe=  172 fps=1.2 q=42.5 size=     512KiB time=00:00:01.41 bitrate=2960.9kbits/s speed=0.00964x elapsed=0:02:26.88    \nframe=  173 fps=1.2 q=45.0 size=     512KiB time=00:00:01.42 bitrate=2943.6kbits/s speed=0.00967x elapsed=0:02:27.43    \nframe=  174 fps=1.2 q=45.1 size=     512KiB time=00:00:01.43 bitrate=2926.5kbits/s speed=0.00969x elapsed=0:02:27.95    \nframe=  175 fps=1.2 q=39.5 size=     512KiB time=00:00:01.44 bitrate=2909.6kbits/s speed=0.00971x elapsed=0:02:28.47    \nframe=  176 fps=1.2 q=42.7 size=     512KiB time=00:00:01.45 bitrate=2892.9kbits/s speed=0.00973x elapsed=0:02:28.98    \nframe=  176 fps=1.2 q=42.7 size=     512KiB time=00:00:01.45 bitrate=2892.9kbits/s speed=0.0097x elapsed=0:02:29.50    \nframe=  177 fps=1.2 q=45.0 size=     512KiB time=00:00:01.45 bitrate=2876.3kbits/s speed=0.00972x elapsed=0:02:30.03    \nframe=  178 fps=1.2 q=45.1 size=     512KiB time=00:00:01.46 bitrate=2860.0kbits/s speed=0.00974x elapsed=0:02:30.55    \nframe=  180 fps=1.2 q=42.8 size=     512KiB time=00:00:01.48 bitrate=2827.9kbits/s speed=0.00982x elapsed=0:02:31.07    \nframe=  180 fps=1.2 q=42.8 size=     512KiB time=00:00:01.48 bitrate=2827.9kbits/s speed=0.00978x elapsed=0:02:31.61    \nframe=  180 fps=1.2 q=42.8 size=     512KiB time=00:00:01.48 bitrate=2827.9kbits/s speed=0.00975x elapsed=0:02:32.12    \nframe=  181 fps=1.2 q=45.0 size=     512KiB time=00:00:01.49 bitrate=2812.1kbits/s speed=0.00977x elapsed=0:02:32.68    \nframe=  182 fps=1.2 q=45.1 size=     512KiB time=00:00:01.50 bitrate=2796.4kbits/s speed=0.00979x elapsed=0:02:33.20    \nframe=  184 fps=1.2 q=43.1 size=     512KiB time=00:00:01.51 bitrate=2765.7kbits/s speed=0.00987x elapsed=0:02:33.72    \nframe=  185 fps=1.2 q=45.1 size=     512KiB time=00:00:01.52 bitrate=2750.6kbits/s speed=0.00988x elapsed=0:02:34.28    \nframe=  186 fps=1.2 q=45.1 size=     512KiB time=00:00:01.53 bitrate=2735.6kbits/s speed=0.00991x elapsed=0:02:34.80    \nframe=  186 fps=1.2 q=45.1 size=     512KiB time=00:00:01.53 bitrate=2735.6kbits/s speed=0.00987x elapsed=0:02:35.32    \nframe=  187 fps=1.2 q=39.3 size=     512KiB time=00:00:01.54 bitrate=2720.9kbits/s speed=0.00989x elapsed=0:02:35.85    \nframe=  188 fps=1.2 q=42.7 size=     512KiB time=00:00:01.55 bitrate=2706.2kbits/s speed=0.00991x elapsed=0:02:36.36    \nframe=  189 fps=1.2 q=45.0 size=     512KiB time=00:00:01.55 bitrate=2691.8kbits/s speed=0.00993x elapsed=0:02:36.90    \nframe=  190 fps=1.2 q=45.0 size=     512KiB time=00:00:01.56 bitrate=2677.4kbits/s speed=0.00995x elapsed=0:02:37.42    \nframe=  190 fps=1.2 q=45.0 size=     512KiB time=00:00:01.56 bitrate=2677.4kbits/s speed=0.00992x elapsed=0:02:37.93    \nframe=  191 fps=1.2 q=39.3 size=     512KiB time=00:00:01.57 bitrate=2663.3kbits/s speed=0.00994x elapsed=0:02:38.48    \nframe=  192 fps=1.2 q=43.0 size=     768KiB time=00:00:01.58 bitrate=3973.8kbits/s speed=0.00996x elapsed=0:02:39.01    \nframe=  192 fps=1.2 q=43.0 size=     768KiB time=00:00:01.58 bitrate=3973.8kbits/s speed=0.00992x elapsed=0:02:39.55    \nframe=  193 fps=1.2 q=45.0 size=     768KiB time=00:00:01.59 bitrate=3953.0kbits/s speed=0.00994x elapsed=0:02:40.07    \nframe=  194 fps=1.2 q=45.0 size=     768KiB time=00:00:01.60 bitrate=3932.4kbits/s speed=0.00996x elapsed=0:02:40.62    \nframe=  195 fps=1.2 q=39.2 size=     768KiB time=00:00:01.60 bitrate=3912.0kbits/s speed=0.00998x elapsed=0:02:41.17    \nframe=  196 fps=1.2 q=42.6 size=     768KiB time=00:00:01.61 bitrate=3891.8kbits/s speed=0.01x elapsed=0:02:41.69    \nframe=  197 fps=1.2 q=45.0 size=     768KiB time=00:00:01.62 bitrate=3871.9kbits/s speed=0.01x elapsed=0:02:42.21    \nframe=  198 fps=1.2 q=45.0 size=     768KiB time=00:00:01.63 bitrate=3852.1kbits/s speed=0.01x elapsed=0:02:42.74    \nframe=  198 fps=1.2 q=45.0 size=     768KiB time=00:00:01.63 bitrate=3852.1kbits/s speed=0.01x elapsed=0:02:43.25    \nframe=  198 fps=1.2 q=45.0 size=     768KiB time=00:00:01.63 bitrate=3852.1kbits/s speed=0.00997x elapsed=0:02:43.77    \nframe=  200 fps=1.2 q=42.9 size=     768KiB time=00:00:01.65 bitrate=3813.2kbits/s speed=0.01x elapsed=0:02:44.28    \nframe=  200 fps=1.2 q=42.9 size=     768KiB time=00:00:01.65 bitrate=3813.2kbits/s speed=0.01x elapsed=0:02:44.81    \nframe=  201 fps=1.2 q=45.1 size=     768KiB time=00:00:01.65 bitrate=3794.1kbits/s speed=0.01x elapsed=0:02:45.35    \nframe=  202 fps=1.2 q=45.0 size=     768KiB time=00:00:01.66 bitrate=3775.1kbits/s speed=0.01x elapsed=0:02:45.87    \nframe=  203 fps=1.2 q=39.3 size=     768KiB time=00:00:01.67 bitrate=3756.3kbits/s speed=0.0101x elapsed=0:02:46.39    \nframe=  204 fps=1.2 q=42.4 size=     768KiB time=00:00:01.68 bitrate=3737.7kbits/s speed=0.0101x elapsed=0:02:46.91    \nframe=  205 fps=1.2 q=44.9 size=     768KiB time=00:00:01.69 bitrate=3719.3kbits/s speed=0.0101x elapsed=0:02:47.43    \nframe=  205 fps=1.2 q=44.9 size=     768KiB time=00:00:01.69 bitrate=3719.3kbits/s speed=0.0101x elapsed=0:02:47.97    \nframe=  206 fps=1.2 q=45.9 size=     768KiB time=00:00:01.70 bitrate=3701.1kbits/s speed=0.0101x elapsed=0:02:48.49    \nframe=  207 fps=1.2 q=39.6 size=     768KiB time=00:00:01.70 bitrate=3683.0kbits/s speed=0.0101x elapsed=0:02:49.01    \nframe=  208 fps=1.2 q=42.4 size=     768KiB time=00:00:01.71 bitrate=3665.1kbits/s speed=0.0101x elapsed=0:02:49.52    \nframe=  209 fps=1.2 q=45.5 size=     768KiB time=00:00:01.72 bitrate=3647.4kbits/s speed=0.0101x elapsed=0:02:50.03    \nframe=  210 fps=1.2 q=45.6 size=     768KiB time=00:00:01.73 bitrate=3629.9kbits/s speed=0.0102x elapsed=0:02:50.57    \nframe=  210 fps=1.2 q=45.6 size=     768KiB time=00:00:01.73 bitrate=3629.9kbits/s speed=0.0101x elapsed=0:02:51.08    \nframe=  211 fps=1.2 q=39.7 size=     768KiB time=00:00:01.74 bitrate=3612.5kbits/s speed=0.0101x elapsed=0:02:51.61    \nframe=  212 fps=1.2 q=42.8 size=     768KiB time=00:00:01.75 bitrate=3595.3kbits/s speed=0.0102x elapsed=0:02:52.13    \nframe=  213 fps=1.2 q=45.9 size=     768KiB time=00:00:01.75 bitrate=3578.3kbits/s speed=0.0102x elapsed=0:02:52.68    \nframe=  214 fps=1.2 q=45.8 size=     768KiB time=00:00:01.76 bitrate=3561.4kbits/s speed=0.0102x elapsed=0:02:53.21    \nframe=  215 fps=1.2 q=39.1 size=     768KiB time=00:00:01.77 bitrate=3544.7kbits/s speed=0.0102x elapsed=0:02:53.75    \nframe=  215 fps=1.2 q=39.1 size=     768KiB time=00:00:01.77 bitrate=3544.7kbits/s speed=0.0102x elapsed=0:02:54.28    \nframe=  216 fps=1.2 q=42.7 size=     768KiB time=00:00:01.78 bitrate=3528.1kbits/s speed=0.0102x elapsed=0:02:54.81    \nframe=  216 fps=1.2 q=42.7 size=     768KiB time=00:00:01.78 bitrate=3528.1kbits/s speed=0.0102x elapsed=0:02:55.35    \nframe=  217 fps=1.2 q=45.9 size=     768KiB time=00:00:01.79 bitrate=3511.7kbits/s speed=0.0102x elapsed=0:02:55.87    \nframe=  217 fps=1.2 q=45.9 size=     768KiB time=00:00:01.79 bitrate=3511.7kbits/s speed=0.0102x elapsed=0:02:56.39    \nframe=  217 fps=1.2 q=45.9 size=     768KiB time=00:00:01.79 bitrate=3511.7kbits/s speed=0.0101x elapsed=0:02:56.92    \nframe=  218 fps=1.2 q=45.8 size=     768KiB time=00:00:01.80 bitrate=3495.4kbits/s speed=0.0101x elapsed=0:02:57.46    \nframe=  219 fps=1.2 q=39.5 size=     768KiB time=00:00:01.80 bitrate=3479.3kbits/s speed=0.0102x elapsed=0:02:57.99    \nframe=  220 fps=1.2 q=42.8 size=     768KiB time=00:00:01.81 bitrate=3463.4kbits/s speed=0.0102x elapsed=0:02:58.52    \nframe=  220 fps=1.2 q=42.8 size=     768KiB time=00:00:01.81 bitrate=3463.4kbits/s speed=0.0101x elapsed=0:02:59.04    \nframe=  221 fps=1.2 q=45.9 size=     768KiB time=00:00:01.82 bitrate=3447.6kbits/s speed=0.0102x elapsed=0:02:59.55    \nframe=  222 fps=1.2 q=45.7 size=     768KiB time=00:00:01.83 bitrate=3431.9kbits/s speed=0.0102x elapsed=0:03:00.10    \nframe=  222 fps=1.2 q=45.7 size=     768KiB time=00:00:01.83 bitrate=3431.9kbits/s speed=0.0101x elapsed=0:03:00.64    \nframe=  223 fps=1.2 q=39.5 size=     768KiB time=00:00:01.84 bitrate=3416.4kbits/s speed=0.0102x elapsed=0:03:01.15    \nframe=  224 fps=1.2 q=43.1 size=     768KiB time=00:00:01.85 bitrate=3401.0kbits/s speed=0.0102x elapsed=0:03:01.71    \nframe=  224 fps=1.2 q=43.1 size=     768KiB time=00:00:01.85 bitrate=3401.0kbits/s speed=0.0102x elapsed=0:03:02.24    \nframe=  225 fps=1.2 q=45.8 size=     768KiB time=00:00:01.85 bitrate=3385.7kbits/s speed=0.0102x elapsed=0:03:02.76    \nframe=  226 fps=1.2 q=45.6 size=     768KiB time=00:00:01.86 bitrate=3370.6kbits/s speed=0.0102x elapsed=0:03:03.27    \nframe=  226 fps=1.2 q=45.6 size=     768KiB time=00:00:01.86 bitrate=3370.6kbits/s speed=0.0102x elapsed=0:03:03.79    \nframe=  227 fps=1.2 q=39.6 size=     768KiB time=00:00:01.87 bitrate=3355.6kbits/s speed=0.0102x elapsed=0:03:04.30    \nframe=  228 fps=1.2 q=42.6 size=     768KiB time=00:00:01.88 bitrate=3340.8kbits/s speed=0.0102x elapsed=0:03:04.83    \nframe=  228 fps=1.2 q=42.6 size=     768KiB time=00:00:01.88 bitrate=3340.8kbits/s speed=0.0102x elapsed=0:03:05.34    \nframe=  229 fps=1.2 q=45.8 size=     768KiB time=00:00:01.89 bitrate=3326.1kbits/s speed=0.0102x elapsed=0:03:05.87    \nframe=  229 fps=1.2 q=45.8 size=     768KiB time=00:00:01.89 bitrate=3326.1kbits/s speed=0.0101x elapsed=0:03:06.38    \nframe=  230 fps=1.2 q=45.7 size=     768KiB time=00:00:01.90 bitrate=3311.5kbits/s speed=0.0102x elapsed=0:03:06.90    \nframe=  231 fps=1.2 q=39.5 size=     768KiB time=00:00:01.90 bitrate=3297.0kbits/s speed=0.0102x elapsed=0:03:07.42    \nframe=  232 fps=1.2 q=42.8 size=     768KiB time=00:00:01.91 bitrate=3282.7kbits/s speed=0.0102x elapsed=0:03:07.95    \nframe=  233 fps=1.2 q=45.8 size=     768KiB time=00:00:01.92 bitrate=3268.5kbits/s speed=0.0102x elapsed=0:03:08.47    \nframe=  234 fps=1.2 q=45.8 size=     768KiB time=00:00:01.93 bitrate=3254.4kbits/s speed=0.0102x elapsed=0:03:09.01    \nframe=  234 fps=1.2 q=45.8 size=     768KiB time=00:00:01.93 bitrate=3254.4kbits/s speed=0.0102x elapsed=0:03:09.54    \nframe=  234 fps=1.2 q=45.8 size=     768KiB time=00:00:01.93 bitrate=3254.4kbits/s speed=0.0102x elapsed=0:03:10.07    \nframe=  235 fps=1.2 q=39.6 size=     768KiB time=00:00:01.94 bitrate=3240.4kbits/s speed=0.0102x elapsed=0:03:10.59    \nframe=  236 fps=1.2 q=43.0 size=     768KiB time=00:00:01.95 bitrate=3226.6kbits/s speed=0.0102x elapsed=0:03:11.10    \nframe=  237 fps=1.2 q=45.8 size=     768KiB time=00:00:01.95 bitrate=3212.8kbits/s speed=0.0102x elapsed=0:03:11.61    \nframe=  238 fps=1.2 q=45.8 size=     768KiB time=00:00:01.96 bitrate=3199.2kbits/s speed=0.0102x elapsed=0:03:12.13    \nframe=  238 fps=1.2 q=45.8 size=     768KiB time=00:00:01.96 bitrate=3199.2kbits/s speed=0.0102x elapsed=0:03:12.64    \nframe=  239 fps=1.2 q=39.7 size=     768KiB time=00:00:01.97 bitrate=3185.7kbits/s speed=0.0102x elapsed=0:03:13.18    \nframe=  240 fps=1.2 q=43.0 size=     768KiB time=00:00:01.98 bitrate=3172.3kbits/s speed=0.0102x elapsed=0:03:13.70    \nframe=  242 fps=1.2 q=45.8 size=     768KiB time=00:00:02.00 bitrate=3145.9kbits/s speed=0.0103x elapsed=0:03:14.28    \nframe=  242 fps=1.2 q=45.8 size=     768KiB time=00:00:02.00 bitrate=3145.9kbits/s speed=0.0103x elapsed=0:03:14.81    \nframe=  242 fps=1.2 q=45.8 size=     768KiB time=00:00:02.00 bitrate=3145.9kbits/s speed=0.0102x elapsed=0:03:15.35    \nframe=  243 fps=1.2 q=39.9 size=     768KiB time=00:00:02.00 bitrate=3132.9kbits/s speed=0.0103x elapsed=0:03:15.91    \nframe=  244 fps=1.2 q=43.2 size=     768KiB time=00:00:02.01 bitrate=3119.9kbits/s speed=0.0103x elapsed=0:03:16.42    \nframe=  246 fps=1.2 q=45.9 size=     768KiB time=00:00:02.03 bitrate=3094.3kbits/s speed=0.0103x elapsed=0:03:16.94    \nframe=  246 fps=1.2 q=45.9 size=     768KiB time=00:00:02.03 bitrate=3094.3kbits/s speed=0.0103x elapsed=0:03:17.45    \nframe=  247 fps=1.2 q=39.6 size=     768KiB time=00:00:02.04 bitrate=3081.7kbits/s speed=0.0103x elapsed=0:03:17.97    \nframe=  248 fps=1.2 q=43.2 size=     768KiB time=00:00:02.05 bitrate=3069.2kbits/s speed=0.0103x elapsed=0:03:18.49    \nframe=  250 fps=1.3 q=45.6 size=    1024KiB time=00:00:02.06 bitrate=4059.2kbits/s speed=0.0104x elapsed=0:03:19.04    \nframe=  250 fps=1.3 q=45.6 size=    1024KiB time=00:00:02.06 bitrate=4059.2kbits/s speed=0.0104x elapsed=0:03:19.58    \nframe=  250 fps=1.2 q=45.6 size=    1024KiB time=00:00:02.06 bitrate=4059.2kbits/s speed=0.0103x elapsed=0:03:20.09    \nframe=  250 fps=1.2 q=45.6 size=    1024KiB time=00:00:02.06 bitrate=4059.2kbits/s speed=0.0103x elapsed=0:03:20.63    \nframe=  251 fps=1.2 q=37.8 size=    1024KiB time=00:00:02.07 bitrate=4042.9kbits/s speed=0.0103x elapsed=0:03:21.15    \nframe=  253 fps=1.3 q=41.4 size=    1024KiB time=00:00:02.09 bitrate=4010.7kbits/s speed=0.0104x elapsed=0:03:21.69    \nframe=  253 fps=1.3 q=41.4 size=    1024KiB time=00:00:02.09 bitrate=4010.7kbits/s speed=0.0103x elapsed=0:03:22.22    \nframe=  254 fps=1.3 q=45.8 size=    1024KiB time=00:00:02.10 bitrate=3994.7kbits/s speed=0.0104x elapsed=0:03:22.75    \nframe=  256 fps=1.3 q=45.8 size=    1024KiB time=00:00:02.11 bitrate=3963.3kbits/s speed=0.0104x elapsed=0:03:23.30    \nframe=  256 fps=1.3 q=45.8 size=    1024KiB time=00:00:02.11 bitrate=3963.3kbits/s speed=0.0104x elapsed=0:03:23.82    \nframe=  256 fps=1.3 q=45.8 size=    1024KiB time=00:00:02.11 bitrate=3963.3kbits/s speed=0.0104x elapsed=0:03:24.37    \nframe=  257 fps=1.3 q=39.6 size=    1024KiB time=00:00:02.12 bitrate=3947.7kbits/s speed=0.0104x elapsed=0:03:24.90    \nframe=  257 fps=1.3 q=39.6 size=    1024KiB time=00:00:02.12 bitrate=3947.7kbits/s speed=0.0103x elapsed=0:03:25.43    \nframe=  258 fps=1.3 q=42.9 size=    1024KiB time=00:00:02.13 bitrate=3932.3kbits/s speed=0.0104x elapsed=0:03:25.95    \nframe=  259 fps=1.3 q=45.8 size=    1024KiB time=00:00:02.14 bitrate=3917.0kbits/s speed=0.0104x elapsed=0:03:26.49    \nframe=  260 fps=1.3 q=45.8 size=    1024KiB time=00:00:02.15 bitrate=3901.8kbits/s speed=0.0104x elapsed=0:03:27.03    \nframe=  261 fps=1.3 q=39.5 size=    1024KiB time=00:00:02.15 bitrate=3901.8kbits/s speed=0.0104x elapsed=0:03:27.55    \nframe=  261 fps=1.3 q=39.5 size=    1024KiB time=00:00:02.15 bitrate=3886.8kbits/s speed=0.0104x elapsed=0:03:28.11    \nframe=  262 fps=1.3 q=40.8 size=    1024KiB time=00:00:02.16 bitrate=3871.8kbits/s speed=0.0104x elapsed=0:03:28.63    \nframe=  262 fps=1.3 q=40.8 size=    1024KiB time=00:00:02.16 bitrate=3871.8kbits/s speed=0.0104x elapsed=0:03:29.16    \nframe=  263 fps=1.3 q=45.5 size=    1024KiB time=00:00:02.17 bitrate=3857.0kbits/s speed=0.0104x elapsed=0:03:29.70    \nframe=  264 fps=1.3 q=45.7 size=    1024KiB time=00:00:02.18 bitrate=3842.3kbits/s speed=0.0104x elapsed=0:03:30.24    \nframe=  265 fps=1.3 q=45.8 size=    1024KiB time=00:00:02.19 bitrate=3827.7kbits/s speed=0.0104x elapsed=0:03:30.76    \nframe=  266 fps=1.3 q=39.3 size=    1024KiB time=00:00:02.20 bitrate=3813.2kbits/s speed=0.0104x elapsed=0:03:31.31    \nframe=  266 fps=1.3 q=39.3 size=    1024KiB time=00:00:02.20 bitrate=3813.2kbits/s speed=0.0104x elapsed=0:03:31.82    \nframe=  267 fps=1.3 q=42.7 size=    1024KiB time=00:00:02.20 bitrate=3798.8kbits/s speed=0.0104x elapsed=0:03:32.36    \nframe=  268 fps=1.3 q=45.7 size=    1024KiB time=00:00:02.21 bitrate=3784.5kbits/s speed=0.0104x elapsed=0:03:32.90    \nframe=  269 fps=1.3 q=45.8 size=    1024KiB time=00:00:02.22 bitrate=3770.3kbits/s speed=0.0104x elapsed=0:03:33.42    \nframe=  270 fps=1.3 q=39.7 size=    1024KiB time=00:00:02.23 bitrate=3756.3kbits/s speed=0.0104x elapsed=0:03:33.92    \nframe=  272 fps=1.3 q=45.7 size=    1024KiB time=00:00:02.25 bitrate=3728.4kbits/s speed=0.0105x elapsed=0:03:34.44    \nframe=  273 fps=1.3 q=45.7 size=    1024KiB time=00:00:02.25 bitrate=3714.7kbits/s speed=0.0105x elapsed=0:03:34.95    \nframe=  273 fps=1.3 q=45.7 size=    1024KiB time=00:00:02.25 bitrate=3714.7kbits/s speed=0.0105x elapsed=0:03:35.47    \nframe=  274 fps=1.3 q=39.5 size=    1024KiB time=00:00:02.26 bitrate=3701.0kbits/s speed=0.0105x elapsed=0:03:36.02    \nframe=  276 fps=1.3 q=45.8 size=    1024KiB time=00:00:02.28 bitrate=3674.0kbits/s speed=0.0105x elapsed=0:03:36.54    \nframe=  277 fps=1.3 q=45.8 size=    1024KiB time=00:00:02.29 bitrate=3660.6kbits/s speed=0.0106x elapsed=0:03:37.07    \nframe=  277 fps=1.3 q=45.8 size=    1024KiB time=00:00:02.29 bitrate=3660.6kbits/s speed=0.0105x elapsed=0:03:37.61    \nframe=  277 fps=1.3 q=45.8 size=    1024KiB time=00:00:02.29 bitrate=3660.6kbits/s speed=0.0105x elapsed=0:03:38.11    \nframe=  278 fps=1.3 q=39.7 size=    1024KiB time=00:00:02.30 bitrate=3647.4kbits/s speed=0.0105x elapsed=0:03:38.65    \nframe=  281 fps=1.3 q=45.7 size=    1024KiB time=00:00:02.32 bitrate=3608.2kbits/s speed=0.0106x elapsed=0:03:39.18    \nframe=  281 fps=1.3 q=45.7 size=    1024KiB time=00:00:02.32 bitrate=3608.2kbits/s speed=0.0106x elapsed=0:03:39.71    \nframe=  281 fps=1.3 q=45.7 size=    1024KiB time=00:00:02.32 bitrate=3608.2kbits/s speed=0.0106x elapsed=0:03:40.26    \nframe=  282 fps=1.3 q=39.5 size=    1024KiB time=00:00:02.33 bitrate=3595.3kbits/s speed=0.0106x elapsed=0:03:40.79    \nframe=  284 fps=1.3 q=45.7 size=    1024KiB time=00:00:02.35 bitrate=3569.8kbits/s speed=0.0106x elapsed=0:03:41.33    \nframe=  285 fps=1.3 q=45.7 size=    1024KiB time=00:00:02.35 bitrate=3557.2kbits/s speed=0.0106x elapsed=0:03:41.86    \nframe=  285 fps=1.3 q=45.7 size=    1024KiB time=00:00:02.35 bitrate=3557.2kbits/s speed=0.0106x elapsed=0:03:42.40    \nframe=  286 fps=1.3 q=39.8 size=    1024KiB time=00:00:02.36 bitrate=3544.6kbits/s speed=0.0106x elapsed=0:03:42.91    \nframe=  287 fps=1.3 q=43.2 size=    1024KiB time=00:00:02.37 bitrate=3532.2kbits/s speed=0.0106x elapsed=0:03:43.43    \nframe=  288 fps=1.3 q=45.7 size=    1024KiB time=00:00:02.38 bitrate=3519.8kbits/s speed=0.0106x elapsed=0:03:43.95    \nframe=  289 fps=1.3 q=45.8 size=    1024KiB time=00:00:02.39 bitrate=3507.6kbits/s speed=0.0107x elapsed=0:03:44.47    \nframe=  290 fps=1.3 q=39.5 size=    1024KiB time=00:00:02.40 bitrate=3495.4kbits/s speed=0.0107x elapsed=0:03:44.99    \nframe=  291 fps=1.3 q=43.0 size=    1024KiB time=00:00:02.40 bitrate=3483.3kbits/s speed=0.0107x elapsed=0:03:45.51    \nframe=  292 fps=1.3 q=45.8 size=    1024KiB time=00:00:02.41 bitrate=3471.3kbits/s speed=0.0107x elapsed=0:03:46.02    \nframe=  292 fps=1.3 q=45.8 size=    1024KiB time=00:00:02.41 bitrate=3471.3kbits/s speed=0.0107x elapsed=0:03:46.54    \nframe=  293 fps=1.3 q=45.8 size=    1024KiB time=00:00:02.42 bitrate=3459.4kbits/s speed=0.0107x elapsed=0:03:47.07    \nframe=  294 fps=1.3 q=39.9 size=    1024KiB time=00:00:02.43 bitrate=3447.5kbits/s speed=0.0107x elapsed=0:03:47.58    \nframe=  295 fps=1.3 q=43.4 size=    1024KiB time=00:00:02.44 bitrate=3435.8kbits/s speed=0.0107x elapsed=0:03:48.12    \nframe=  296 fps=1.3 q=45.9 size=    1024KiB time=00:00:02.45 bitrate=3424.1kbits/s speed=0.0107x elapsed=0:03:48.65    \nframe=  297 fps=1.3 q=45.4 size=    1024KiB time=00:00:02.45 bitrate=3412.5kbits/s speed=0.0107x elapsed=0:03:49.20    \nframe=  297 fps=1.3 q=45.4 size=    1024KiB time=00:00:02.45 bitrate=3412.5kbits/s speed=0.0107x elapsed=0:03:49.73    \nframe=  298 fps=1.3 q=39.8 size=    1024KiB time=00:00:02.46 bitrate=3400.9kbits/s speed=0.0107x elapsed=0:03:50.25    \nframe=  299 fps=1.3 q=43.2 size=    1024KiB time=00:00:02.47 bitrate=3389.5kbits/s speed=0.0107x elapsed=0:03:50.79    \nframe=  301 fps=1.3 q=45.9 size=    1024KiB time=00:00:02.49 bitrate=3366.8kbits/s speed=0.0108x elapsed=0:03:51.30    \nframe=  301 fps=1.3 q=45.9 size=    1024KiB time=00:00:02.49 bitrate=3366.8kbits/s speed=0.0107x elapsed=0:03:51.83    \nframe=  301 fps=1.3 q=45.9 size=    1024KiB time=00:00:02.49 bitrate=3366.8kbits/s speed=0.0107x elapsed=0:03:52.36    \nframe=  301 fps=1.3 q=45.9 size=    1024KiB time=00:00:02.49 bitrate=3366.8kbits/s speed=0.0107x elapsed=0:03:52.89    \nframe=  302 fps=1.3 q=40.0 size=    1024KiB time=00:00:02.50 bitrate=3355.6kbits/s speed=0.0107x elapsed=0:03:53.41    \nframe=  303 fps=1.3 q=43.1 size=    1280KiB time=00:00:02.50 bitrate=4180.5kbits/s speed=0.0107x elapsed=0:03:53.92    \nframe=  304 fps=1.3 q=45.8 size=    1280KiB time=00:00:02.51 bitrate=4166.7kbits/s speed=0.0107x elapsed=0:03:54.45    \nframe=  305 fps=1.3 q=45.7 size=    1280KiB time=00:00:02.52 bitrate=4152.9kbits/s speed=0.0107x elapsed=0:03:55.00    \nframe=  306 fps=1.3 q=39.9 size=    1280KiB time=00:00:02.53 bitrate=4139.3kbits/s speed=0.0108x elapsed=0:03:55.50    \nframe=  307 fps=1.3 q=43.2 size=    1280KiB time=00:00:02.54 bitrate=4125.7kbits/s speed=0.0108x elapsed=0:03:56.03    \nframe=  308 fps=1.3 q=45.6 size=    1280KiB time=00:00:02.55 bitrate=4112.2kbits/s speed=0.0108x elapsed=0:03:56.55    \nframe=  309 fps=1.3 q=45.7 size=    1280KiB time=00:00:02.55 bitrate=4098.8kbits/s speed=0.0108x elapsed=0:03:57.07    \nframe=  310 fps=1.3 q=39.6 size=    1280KiB time=00:00:02.56 bitrate=4085.5kbits/s speed=0.0108x elapsed=0:03:57.58    \nframe=  312 fps=1.3 q=45.8 size=    1280KiB time=00:00:02.58 bitrate=4059.1kbits/s speed=0.0108x elapsed=0:03:58.10    \nframe=  313 fps=1.3 q=45.8 size=    1280KiB time=00:00:02.59 bitrate=4046.1kbits/s speed=0.0109x elapsed=0:03:58.61    \nframe=  315 fps=1.3 q=43.5 size=    1280KiB time=00:00:02.60 bitrate=4020.2kbits/s speed=0.0109x elapsed=0:03:59.12    \nframe=  317 fps=1.3 q=46.4 size=    1280KiB time=00:00:02.62 bitrate=3994.7kbits/s speed=0.011x elapsed=0:03:59.64    \nframe=  320 fps=1.3 q=46.7 size=    1280KiB time=00:00:02.65 bitrate=3957.0kbits/s speed=0.011x elapsed=0:04:00.15    \nframe=  322 fps=1.3 q=40.3 size=    1280KiB time=00:00:02.66 bitrate=3932.3kbits/s speed=0.0111x elapsed=0:04:00.67    \nframe=  325 fps=1.3 q=46.8 size=    1280KiB time=00:00:02.69 bitrate=3895.8kbits/s speed=0.0112x elapsed=0:04:01.20    \nframe=  327 fps=1.4 q=43.8 size=    1280KiB time=00:00:02.70 bitrate=3871.8kbits/s speed=0.0112x elapsed=0:04:01.71    \nframe=  330 fps=1.4 q=40.4 size=    1280KiB time=00:00:02.73 bitrate=3836.4kbits/s speed=0.0113x elapsed=0:04:02.22    \nframe=  333 fps=1.4 q=46.9 size=    1280KiB time=00:00:02.75 bitrate=3801.6kbits/s speed=0.0114x elapsed=0:04:02.74    \nframe=  334 fps=1.4 q=40.1 size=    1280KiB time=00:00:02.76 bitrate=3790.2kbits/s speed=0.0114x elapsed=0:04:03.25    \nframe=  337 fps=1.4 q=46.8 size=    1280KiB time=00:00:02.79 bitrate=3756.2kbits/s speed=0.0115x elapsed=0:04:03.78    \nframe=  339 fps=1.4 q=43.7 size=    1280KiB time=00:00:02.80 bitrate=3733.9kbits/s speed=0.0115x elapsed=0:04:04.28    \nframe=  342 fps=1.4 q=39.9 size=    1280KiB time=00:00:02.83 bitrate=3701.0kbits/s speed=0.0116x elapsed=0:04:04.80    \nframe=  345 fps=1.4 q=46.9 size=    1280KiB time=00:00:02.85 bitrate=3668.6kbits/s speed=0.0117x elapsed=0:04:05.31    \nframe=  348 fps=1.4 q=46.6 size=    1280KiB time=00:00:02.88 bitrate=3636.8kbits/s speed=0.0117x elapsed=0:04:05.84    \nframe=  350 fps=1.4 q=40.3 size=    1280KiB time=00:00:02.90 bitrate=3615.9kbits/s speed=0.0118x elapsed=0:04:06.35    \nframe=  353 fps=1.4 q=46.7 size=    1280KiB time=00:00:02.92 bitrate=3585.0kbits/s speed=0.0118x elapsed=0:04:06.87    \nframe=  355 fps=1.4 q=43.9 size=    1280KiB time=00:00:02.94 bitrate=3564.7kbits/s speed=0.0119x elapsed=0:04:07.38    \nframe=  357 fps=1.4 q=46.8 size=    1280KiB time=00:00:02.95 bitrate=3544.6kbits/s speed=0.0119x elapsed=0:04:07.89    \nframe=  359 fps=1.4 q=43.9 size=    1280KiB time=00:00:02.97 bitrate=3524.7kbits/s speed=0.012x elapsed=0:04:08.41    \nframe=  361 fps=1.5 q=46.8 size=    1280KiB time=00:00:02.99 bitrate=3505.1kbits/s speed=0.012x elapsed=0:04:08.92    \nframe=  365 fps=1.5 q=46.8 size=    1536KiB time=00:00:03.02 bitrate=4159.8kbits/s speed=0.0121x elapsed=0:04:09.45    \nframe=  367 fps=1.5 q=44.0 size=    1536KiB time=00:00:03.04 bitrate=4137.0kbits/s speed=0.0122x elapsed=0:04:09.96    \nframe=  369 fps=1.5 q=46.8 size=    1536KiB time=00:00:03.05 bitrate=4114.4kbits/s speed=0.0122x elapsed=0:04:10.48    \nframe=  372 fps=1.5 q=46.7 size=    1536KiB time=00:00:03.08 bitrate=4081.1kbits/s speed=0.0123x elapsed=0:04:10.99    \nframe=  374 fps=1.5 q=40.6 size=    1536KiB time=00:00:03.10 bitrate=4059.1kbits/s speed=0.0123x elapsed=0:04:11.50    \nframe=  377 fps=1.5 q=46.9 size=    1536KiB time=00:00:03.12 bitrate=4026.6kbits/s speed=0.0124x elapsed=0:04:12.02    \nframe=  379 fps=1.5 q=43.9 size=    1536KiB time=00:00:03.14 bitrate=4005.3kbits/s speed=0.0124x elapsed=0:04:12.53    \nframe=  382 fps=1.5 q=40.7 size=    1536KiB time=00:00:03.16 bitrate=3973.7kbits/s speed=0.0125x elapsed=0:04:13.05    \nframe=  384 fps=1.5 q=46.9 size=    1536KiB time=00:00:03.18 bitrate=3952.9kbits/s speed=0.0126x elapsed=0:04:13.56    \nframe=  386 fps=1.5 q=40.3 size=    1536KiB time=00:00:03.20 bitrate=3932.3kbits/s speed=0.0126x elapsed=0:04:14.08    \nframe=  389 fps=1.5 q=46.9 size=    1536KiB time=00:00:03.22 bitrate=3901.8kbits/s speed=0.0127x elapsed=0:04:14.60    \nframe=  392 fps=1.5 q=46.8 size=    1536KiB time=00:00:03.25 bitrate=3871.8kbits/s speed=0.0127x elapsed=0:04:15.11    \nframe=  394 fps=1.5 q=40.1 size=    1536KiB time=00:00:03.26 bitrate=3852.0kbits/s speed=0.0128x elapsed=0:04:15.62    \nframe=  397 fps=1.5 q=46.8 size=    1536KiB time=00:00:03.29 bitrate=3822.8kbits/s speed=0.0129x elapsed=0:04:16.15    \nframe=  400 fps=1.6 q=46.8 size=    1536KiB time=00:00:03.31 bitrate=3793.9kbits/s speed=0.0129x elapsed=0:04:16.67    \nframe=  402 fps=1.6 q=40.1 size=    1536KiB time=00:00:03.33 bitrate=3775.0kbits/s speed=0.013x elapsed=0:04:17.18    \nframe=  405 fps=1.6 q=46.8 size=    1536KiB time=00:00:03.35 bitrate=3746.9kbits/s speed=0.013x elapsed=0:04:17.69    \nframe=  407 fps=1.6 q=44.0 size=    1536KiB time=00:00:03.37 bitrate=3728.4kbits/s speed=0.0131x elapsed=0:04:18.21    \nframe=  410 fps=1.6 q=40.3 size=    1536KiB time=00:00:03.40 bitrate=3701.0kbits/s speed=0.0131x elapsed=0:04:18.72    \nframe=  413 fps=1.6 q=47.0 size=    1536KiB time=00:00:03.42 bitrate=3673.9kbits/s speed=0.0132x elapsed=0:04:19.23    \nframe=  415 fps=1.6 q=44.7 size=    1536KiB time=00:00:03.44 bitrate=3656.2kbits/s speed=0.0132x elapsed=0:04:19.75    \nframe=  418 fps=1.6 q=40.4 size=    1536KiB time=00:00:03.46 bitrate=3629.8kbits/s speed=0.0133x elapsed=0:04:20.28    \nframe=  421 fps=1.6 q=46.9 size=    1536KiB time=00:00:03.49 bitrate=3603.8kbits/s speed=0.0134x elapsed=0:04:20.79    \nframe=  423 fps=1.6 q=44.5 size=    1792KiB time=00:00:03.50 bitrate=4184.4kbits/s speed=0.0134x elapsed=0:04:21.30    \nframe=  426 fps=1.6 q=40.3 size=    1792KiB time=00:00:03.53 bitrate=4154.8kbits/s speed=0.0135x elapsed=0:04:21.82    \nframe=  429 fps=1.6 q=47.0 size=    1792KiB time=00:00:03.55 bitrate=4125.6kbits/s speed=0.0136x elapsed=0:04:22.33    \nframe=  432 fps=1.6 q=46.9 size=    1792KiB time=00:00:03.58 bitrate=4096.9kbits/s speed=0.0136x elapsed=0:04:22.85    \nframe=  434 fps=1.6 q=40.4 size=    1792KiB time=00:00:03.60 bitrate=4077.9kbits/s speed=0.0137x elapsed=0:04:23.36    \nframe=  437 fps=1.7 q=46.9 size=    1792KiB time=00:00:03.62 bitrate=4049.8kbits/s speed=0.0137x elapsed=0:04:23.90    \nframe=  440 fps=1.7 q=47.0 size=    1792KiB time=00:00:03.65 bitrate=4022.0kbits/s speed=0.0138x elapsed=0:04:24.42    \nframe=  442 fps=1.7 q=40.1 size=    1792KiB time=00:00:03.66 bitrate=4003.7kbits/s speed=0.0138x elapsed=0:04:24.93    \nframe=  446 fps=1.7 q=40.2 size=    1792KiB time=00:00:03.70 bitrate=3967.7kbits/s speed=0.0139x elapsed=0:04:25.44    \nframe=  448 fps=1.7 q=46.9 size=    1792KiB time=00:00:03.71 bitrate=3949.9kbits/s speed=0.014x elapsed=0:04:25.97    \nframe=  450 fps=1.7 q=40.3 size=    1792KiB time=00:00:03.73 bitrate=3932.3kbits/s speed=0.014x elapsed=0:04:26.49    \nframe=  453 fps=1.7 q=46.8 size=    1792KiB time=00:00:03.75 bitrate=3906.1kbits/s speed=0.0141x elapsed=0:04:27.00    \nframe=  456 fps=1.7 q=46.9 size=    1792KiB time=00:00:03.78 bitrate=3880.3kbits/s speed=0.0141x elapsed=0:04:27.53    \nframe=  458 fps=1.7 q=40.0 size=    1792KiB time=00:00:03.80 bitrate=3863.3kbits/s speed=0.0142x elapsed=0:04:28.04    \nframe=  461 fps=1.7 q=46.9 size=    1792KiB time=00:00:03.82 bitrate=3838.0kbits/s speed=0.0142x elapsed=0:04:28.56    \nframe=  465 fps=1.7 q=47.0 size=    1792KiB time=00:00:03.85 bitrate=3804.9kbits/s speed=0.0143x elapsed=0:04:29.07    \nframe=  467 fps=1.7 q=44.7 size=    1792KiB time=00:00:03.87 bitrate=3788.5kbits/s speed=0.0144x elapsed=0:04:29.59    \nframe=  469 fps=1.7 q=46.9 size=    1792KiB time=00:00:03.89 bitrate=3772.3kbits/s speed=0.0144x elapsed=0:04:30.12    \nframe=  473 fps=1.7 q=46.9 size=    1792KiB time=00:00:03.92 bitrate=3740.2kbits/s speed=0.0145x elapsed=0:04:30.63    \nframe=  475 fps=1.8 q=44.8 size=    1792KiB time=00:00:03.94 bitrate=3724.4kbits/s speed=0.0145x elapsed=0:04:31.15    \nframe=  478 fps=1.8 q=40.7 size=    1792KiB time=00:00:03.96 bitrate=3700.9kbits/s speed=0.0146x elapsed=0:04:31.66    \nframe=  481 fps=1.8 q=47.0 size=    1792KiB time=00:00:03.99 bitrate=3677.8kbits/s speed=0.0147x elapsed=0:04:32.18    \nframe=  483 fps=1.8 q=44.7 size=    2048KiB time=00:00:04.00 bitrate=4185.7kbits/s speed=0.0147x elapsed=0:04:32.69    \nframe=  485 fps=1.8 q=46.9 size=    2048KiB time=00:00:04.02 bitrate=4168.3kbits/s speed=0.0147x elapsed=0:04:33.21    \nframe=  489 fps=1.8 q=46.9 size=    2048KiB time=00:00:04.05 bitrate=4134.1kbits/s speed=0.0148x elapsed=0:04:33.72    \nframe=  490 fps=1.8 q=40.5 size=    2048KiB time=00:00:04.06 bitrate=4125.6kbits/s speed=0.0148x elapsed=0:04:34.24    \nframe=  493 fps=1.8 q=46.9 size=    2048KiB time=00:00:04.09 bitrate=4100.4kbits/s speed=0.0149x elapsed=0:04:34.76    \nframe=  496 fps=1.8 q=47.0 size=    2048KiB time=00:00:04.11 bitrate=4075.5kbits/s speed=0.015x elapsed=0:04:35.27    \nframe=  500 fps=1.8 q=46.8 size=    2048KiB time=00:00:04.15 bitrate=4042.8kbits/s speed=0.015x elapsed=0:04:35.79    \nframe=  504 fps=1.8 q=46.9 size=    2048KiB time=00:00:04.18 bitrate=4010.6kbits/s speed=0.0151x elapsed=0:04:36.30    \nframe=  508 fps=1.8 q=46.8 size=    2048KiB time=00:00:04.21 bitrate=3978.9kbits/s speed=0.0152x elapsed=0:04:36.82    \nframe=  511 fps=1.8 q=44.6 size=    2048KiB time=00:00:04.24 bitrate=3955.4kbits/s speed=0.0153x elapsed=0:04:37.33    \nframe=  515 fps=1.9 q=44.9 size=    2048KiB time=00:00:04.27 bitrate=3924.6kbits/s speed=0.0154x elapsed=0:04:37.85    \nframe=  519 fps=1.9 q=45.1 size=    2048KiB time=00:00:04.30 bitrate=3894.2kbits/s speed=0.0155x elapsed=0:04:38.36    \nframe=  523 fps=1.9 q=45.1 size=    2048KiB time=00:00:04.33 bitrate=3871.7kbits/s speed=0.0155x elapsed=0:04:38.88    \nframe=  527 fps=1.9 q=45.2 size=    2048KiB time=00:00:04.37 bitrate=3834.9kbits/s speed=0.0157x elapsed=0:04:39.41    \nframe=  531 fps=1.9 q=45.0 size=    2048KiB time=00:00:04.40 bitrate=3805.9kbits/s speed=0.0157x elapsed=0:04:39.92    \nframe=  535 fps=1.9 q=45.6 size=    2048KiB time=00:00:04.44 bitrate=3777.3kbits/s speed=0.0158x elapsed=0:04:40.45    \nframe=  539 fps=1.9 q=45.9 size=    2304KiB time=00:00:04.47 bitrate=4217.8kbits/s speed=0.0159x elapsed=0:04:40.97    \nframe=  543 fps=1.9 q=46.0 size=    2304KiB time=00:00:04.50 bitrate=4186.6kbits/s speed=0.016x elapsed=0:04:41.49    \nframe=  547 fps=1.9 q=45.8 size=    2304KiB time=00:00:04.54 bitrate=4155.9kbits/s speed=0.0161x elapsed=0:04:42.01    \nframe=  551 fps=2.0 q=45.3 size=    2304KiB time=00:00:04.57 bitrate=4125.6kbits/s speed=0.0162x elapsed=0:04:42.52    \nframe=  555 fps=2.0 q=46.5 size=    2304KiB time=00:00:04.60 bitrate=4095.8kbits/s speed=0.0163x elapsed=0:04:43.03    \nframe=  560 fps=2.0 q=45.2 size=    2304KiB time=00:00:04.65 bitrate=4059.1kbits/s speed=0.0164x elapsed=0:04:43.55    \nframe=  564 fps=2.0 q=44.9 size=    2304KiB time=00:00:04.68 bitrate=4030.2kbits/s speed=0.0165x elapsed=0:04:44.08    \nframe=  568 fps=2.0 q=45.6 size=    2304KiB time=00:00:04.71 bitrate=4001.7kbits/s speed=0.0166x elapsed=0:04:44.61    \nframe=  572 fps=2.0 q=45.8 size=    2304KiB time=00:00:04.75 bitrate=3973.6kbits/s speed=0.0167x elapsed=0:04:45.12    \nframe=  577 fps=2.0 q=47.9 size=    2304KiB time=00:00:04.79 bitrate=3939.1kbits/s speed=0.0168x elapsed=0:04:45.64    \nframe=  580 fps=2.0 q=44.7 size=    2304KiB time=00:00:04.81 bitrate=3918.6kbits/s speed=0.0168x elapsed=0:04:46.15    \nframe=  585 fps=2.0 q=44.7 size=    2304KiB time=00:00:04.85 bitrate=3885.0kbits/s speed=0.0169x elapsed=0:04:46.66    \nframe=  589 fps=2.1 q=42.8 size=    2304KiB time=00:00:04.89 bitrate=3858.5kbits/s speed=0.017x elapsed=0:04:47.18    \nframe=  593 fps=2.1 q=41.2 size=    2304KiB time=00:00:04.92 bitrate=3832.4kbits/s speed=0.0171x elapsed=0:04:47.70    \nframe=  598 fps=2.1 q=44.8 size=    2304KiB time=00:00:04.96 bitrate=3800.3kbits/s speed=0.0172x elapsed=0:04:48.22    \n[mp4 @ 00000295ccec9b80] Starting second pass: moving the moov atom to the beginning of the file\n[out#0/mp4 @ 00000295ccec9a80] video:2545KiB audio:0KiB subtitle:0KiB other streams:0KiB global headers:2KiB muxing overhead: 0.428384%\nframe=  600 fps=2.1 q=46.9 Lsize=    2556KiB time=00:00:04.98 bitrate=4201.2kbits/s speed=0.0173x elapsed=0:04:48.26    \nx265 [info]: frame I:      3, Avg QP:40.15  kb/s: 16620.16\nx265 [info]: frame P:    147, Avg QP:39.97  kb/s: 12147.60\nx265 [info]: frame B:    450, Avg QP:45.41  kb/s: 1474.98 \nx265 [info]: Weighted P-Frames: Y:0.0% UV:0.0%\n\nencoded 600 frames in 288.06s (2.08 fps), 4165.50 kb/s, Avg QP:44.05\n",
  "seconds": 288.387131690979,
  "probe_out": {}
}